<?xml version="1.0" encoding="UTF-8" standalone="no"?>
<svg width="161px" height="93px" viewBox="0 0 161 93" version="1.1" xmlns="http://www.w3.org/2000/svg" xmlns:xlink="http://www.w3.org/1999/xlink">
    <!-- Generator: Sketch 50.2 (55047) - http://www.bohemiancoding.com/sketch -->
    <title>logo-granvue-2018</title>
    <desc>Created with Sketch.</desc>
    <defs></defs>
    <g id="Desktop" stroke="none" stroke-width="1" fill="none" fill-rule="evenodd">
        <g transform="translate(-201.000000, -34.000000)" fill-rule="nonzero" id="logo-granvue-2018">
            <g transform="translate(201.000000, 34.000000)">
                <g id="Group" transform="translate(0.000000, 52.000000)" fill="#FFFFFF">
                    <path d="M19.6239374,17.9753002 C17.5958844,20.5905976 14.1951937,22.033347 10.8614609,21.9994147 C4.9511351,21.9654825 -0.133805319,17.1697232 0.00268586524,10.8319312 C0.00268586524,5.73455181 3.91972531,1.07200804 9.17721119,0.100540027 C9.69227226,0.0326755089 10.3463998,0 10.9644731,0 C13.9544026,0 17.1490689,1.00540027 19.039343,3.15192986 C20.0694652,4.32573468 18.3182575,5.93563187 17.2520811,4.72789479 C15.328328,2.54868969 12.1323741,1.77704498 9.55449343,2.41421741 C5.77394516,3.28640215 2.47626666,6.53887203 2.47626666,10.9324712 C2.5457999,15.6616228 6.46283935,19.6191296 10.8949399,19.7196696 C13.4367662,19.7536019 16.0828925,18.6803371 17.5945967,16.7009553 L17.5945967,12.2407483 L11.4100009,12.2407483 C9.79528448,12.2407483 9.96654228,10.027611 11.4100009,10.027611 L18.6942521,10.027611 C19.6908953,10.027611 19.9999319,10.5303111 19.9999319,11.2680236 L19.9999319,16.8681031 C20.0025072,17.2375877 19.932974,17.6736801 19.6239374,17.9753002 Z" id="Shape"></path>
                    <path d="M28.4561502,15.1171282 L28.4561502,21.732296 C28.4561502,23.3014337 26,23.3014337 26,21.7667965 L26,2.19346468 C26,1.47789699 26.504343,1 27.2444662,1 L35.2181283,1 C41.038246,1 44,4.34144554 44,8.3307354 C44,11.7744049 42.1503222,14.2635582 38.0109274,14.9804037 L43.4616139,20.9477271 C44.7401233,22.2434157 42.8891846,23.7435523 41.7796301,22.5845882 L34.982348,15.1171282 L28.4561502,15.1171282 Z M28.4561502,12.9678696 L35.2521715,12.9678696 C39.6601289,12.9678696 41.577893,10.8876121 41.5110675,8.3307354 C41.4770244,5.53491022 39.1557859,3.2847054 35.2521715,3.2847054 L28.4561502,3.2847054 L28.4561502,12.9678696 Z" id="Shape"></path>
                    <path d="M50.1012388,16.8798291 L47.348303,22.3799249 C46.7368226,23.6672368 44.4921799,22.7633795 45.1049343,21.3704219 L55.3714356,0.661263588 C55.5752624,0.208682789 56.0517076,0 56.4924831,0 C56.9345324,0 57.34346,0.208682789 57.5804086,0.661263588 L67.8137881,21.2660805 C68.6978869,22.7633795 66.1818998,23.6333259 65.5360236,22.2755835 L62.8837273,16.8811334 L50.1012388,16.8811334 L50.1012388,16.8798291 Z M56.4924831,3.72368352 L51.1216468,14.6873556 L61.8301975,14.6873556 L56.4924831,3.72368352 Z" id="Shape"></path>
                    <path d="M86.4285714,1.11092917 C86.4285714,-0.301891033 89,-0.369948384 89,1.11092917 L89,20.4152709 C89,22.0977998 86.6656805,22.2654226 85.9543533,21.0882825 L73.3000845,4.23904669 L73.5714286,8.8795498 L73.5714286,20.7517767 C73.5714286,22.3990166 71,22.4330453 71,20.7517767 L71,1.48020332 C71,-0.201065327 72.8943364,-0.469513769 73.7400676,0.774423376 L86.7671175,18.0950193 L86.4285714,13.0159244 L86.4285714,1.11092917 Z" id="Shape"></path>
                    <path d="M92.1104489,1.66476735 C91.469804,0.217282307 93.7960906,-0.724591674 94.4708527,0.721632498 L103.136618,17.9489741 L111.600207,0.789719774 C112.139764,-0.589677998 114.433196,0.150455907 113.927757,1.66476735 L104.216995,21.2802071 C103.744409,22.1552547 102.53009,22.3569948 101.957679,21.1793371 L92.1104489,1.66476735 Z" id="Shape"></path>
                    <path d="M135.456809,1.24030052 C135.456809,-0.407714977 138,-0.407714977 138,1.20625583 L138,12.2758259 C138,18.7367528 132.949187,22 128,22 C123.050813,22 118,18.7367528 118,12.2758259 L118,1.20625583 C118,-0.274058019 120.541921,-0.274058019 120.541921,1.24030052 L120.541921,12.2770868 C120.541921,22.0012609 135.458079,22.0012609 135.458079,12.2770868 L135.458079,1.24030052 L135.456809,1.24030052 Z" id="Shape"></path>
                    <path d="M146.443701,20.7171646 L159.852889,20.7171646 C161.278911,20.7171646 161.482447,23 159.852889,23 L145.560865,23 C144.610607,23 144,22.3090566 144,21.4781097 L144,2.4868894 C144,1.69094337 144.611879,1 145.560865,1 L159.887236,1 C161.347605,1 161.278911,3.21412999 159.852889,3.21412999 L146.443701,3.21412999 L146.443701,10.9972895 L159.207935,10.9972895 C160.565264,10.9972895 160.633958,13.2114195 159.207935,13.2114195 L146.443701,13.2114195 L146.443701,20.7171646 Z" id="Shape"></path>
                </g>
                <g id="Group" transform="translate(55.000000, 0.000000)">
                    <polygon id="Shape" fill="#FFFFFF" points="0 0 25.4163145 44 35 27.3221249 27.5048686 14.6396964 22.0880029 14.6396964 29.2410435 26.9727963 25.49605 33.7359019 9.12970788 4.85335668 21.7369098 4.85335668 18.8625758 0"></polygon>
                    <polygon id="Shape" fill="#33A7AE" points="22 0 24.8975224 4.89266361 42.5147713 4.89266361 33.7543954 19.906732 36.7301587 25 51 0"></polygon>
                </g>
                <g id="Group" transform="translate(48.000000, 82.000000)" fill="#FFFFFF">
                    <path d="M0,0.489542279 C0,0.177787733 0.156788962,0.0212844469 0.466603951,0.0212844469 L0.921919097,0.0212844469 C1.23424271,0.017528368 1.38852305,0.174031654 1.39103167,0.487038226 L1.40232048,4.41589672 L6.59767952,4.40212443 L6.58388209,0.472013911 C6.58388209,0.160259365 6.75446849,0.00375607887 7.05299467,0 L7.51959862,0 C7.81937912,0 7.97115083,0.15525126 7.97616808,0.465753779 L8,9.51039169 C8,9.82339826 7.84697397,9.97864952 7.54844779,9.98365763 L7.08184384,9.98365763 C6.78331765,9.98365763 6.61273126,9.82715434 6.61273126,9.51790385 L6.60144246,5.59906156 L1.40608341,5.61658993 L1.41737222,9.53167614 C1.41737222,9.84343068 1.26434619,9.99742992 0.950768266,9.99993397 L0.49545312,9.99993397 C0.185638131,10.00369 0.0250862339,9.84718676 0.0250862339,9.53418019 L0,0.489542279 Z" id="Shape"></path>
                    <path d="M19.4474026,4.43979049e-05 C22.608595,-0.0116499402 24.9054614,2.28823655 24.9174659,5.26639464 C24.9241351,8.3134194 22.6432747,10.697765 19.4807485,10.7094593 C16.3195561,10.7159562 14.0080175,8.34590367 14.0000145,5.2949808 C13.9933453,2.31552334 16.2888779,0.00654125239 19.4474026,4.43979049e-05 M19.476747,9.37240668 C21.7362659,9.36590982 23.3848878,7.58577169 23.3782186,5.26899339 C23.3742171,3.02497985 21.7135907,1.32800145 19.4554056,1.33579768 C17.1958866,1.33969579 15.5272572,3.04706915 15.5352603,5.29108269 C15.5419294,7.607861 17.217228,9.37630479 19.476747,9.37240668" id="Shape"></path>
                    <path d="M30.7038399,0.465407231 C30.7311754,0.180157638 30.9001585,0.0250218942 31.1797261,0.0250218942 L31.809685,0.02126861 C32.0755849,0.02126861 32.2433254,0.136369323 32.330302,0.389090454 L34.4898063,5.40848242 C34.7134604,5.96021519 34.9818452,6.75090704 34.9818452,6.75090704 L35.0129083,6.75090704 C35.0129083,6.75090704 35.2614128,5.9564619 35.4850669,5.40848242 L37.6172357,0.375328412 C37.6992422,0.118853997 37.8694678,0.00375328412 38.1341251,0.00375328412 L38.7653265,0 C39.0473792,0 39.2163622,0.156386838 39.2436977,0.441636432 L39.9991515,9.49080445 C40.0128192,9.80232704 39.8612315,9.97247592 39.5543284,9.97247592 L39.1032927,9.9762292 C38.8100574,9.9762292 38.6510145,9.82109346 38.6249215,9.52583511 L38.160218,3.69198048 C38.1018195,3.08895283 38.1254274,2.22444639 38.1254274,2.22444639 C38.0980919,2.22444639 37.7911888,3.144001 37.5712623,3.69198048 L35.7596644,7.82309521 C35.6627476,8.07581634 35.4937645,8.18966596 35.2291072,8.18966596 L34.7668888,8.19341924 C34.4985039,8.19341924 34.3282783,8.07831853 34.2326041,7.8255974 L32.3973982,3.70824471 C32.1836843,3.17402727 31.8593859,2.21443763 31.8593859,2.21443763 C31.8320504,2.21443763 31.8593859,3.10521706 31.8084425,3.70824471 L31.3748021,9.54585262 C31.3474666,9.84111097 31.1958789,9.99624672 30.9163113,9.99624672 L30.4516078,10 C30.1422197,10 29.9893894,9.82985112 30.0005721,9.51832854 L30.7038399,0.465407231 Z" id="Shape"></path>
                    <path d="M47,0.482154039 C47,0.170319349 47.1549587,0.0137758297 47.461157,0.0137758297 L52.2760331,0 C52.5859504,0 52.7371901,0.156543519 52.7371901,0.468378209 L52.7371901,0.750156544 C52.7409091,1.04445836 52.5859504,1.21603006 52.2797521,1.21853475 L48.3760331,1.22855354 L48.3822314,4.35316218 L51.4752066,4.34690044 C51.7665289,4.34690044 51.9363636,4.49968691 51.938843,4.8115216 L51.938843,5.08954289 C51.938843,5.40137758 51.7714876,5.5579211 51.477686,5.5579211 L48.3847107,5.56793989 L48.3946281,8.77645585 L52.5363636,8.76643707 C52.8450413,8.76643707 53,8.92172824 53,9.23105823 L53,9.51659361 C53,9.82592361 52.8487603,9.98246713 52.538843,9.98246713 L47.4871901,10 C47.1809917,10 47.022314,9.84345648 47.022314,9.53162179 L47,0.482154039 Z" id="Shape"></path>
                    <path d="M59.3436654,8.04439325 C59.5037158,7.82602697 59.6922197,7.79812461 59.9447437,7.96068617 C60.2802568,8.20574167 61.0070043,8.73709962 62.0088014,8.73709962 C63.011784,8.73346018 63.6685835,8.18269189 63.6662124,7.34804744 C63.6590991,5.20927102 59.1112959,5.70302145 59.1006259,2.69441934 C59.0970692,1.06273796 60.4320083,0.00366149109 62.1605529,2.2053061e-05 C63.2820914,-0.00361738497 64.1688893,0.444033493 64.5304847,0.730335951 C64.7569264,0.894110663 64.7841943,1.10034548 64.6656384,1.34904042 L64.4783201,1.6887213 C64.3206408,1.9786632 64.1072403,1.95440028 63.8772419,1.81610163 C63.5156465,1.59773535 62.9394649,1.25562817 62.1380273,1.25805447 C61.1575702,1.2616939 60.4379361,1.78213354 60.4414928,2.62041744 C60.4450494,4.70217599 64.9940382,4.12714478 64.999966,7.23522486 C65.0070793,8.75893625 63.8985819,9.99391889 62.012358,9.99998462 C60.64778,10.0036241 59.5997461,9.36065667 59.1729449,9.00399174 C58.9986678,8.84143018 58.9168643,8.64975311 59.1172237,8.37436896 L59.3436654,8.04439325 Z" id="Shape"></path>
                </g>
            </g>
        </g>
    </g>
</svg>