<?xml version="1.0" encoding="utf-8"?>
<!-- Generator: Adobe Illustrator 22.0.0, SVG Export Plug-In . SVG Version: 6.00 Build 0)  -->
<svg version="1.1" id="Layer_1" xmlns="http://www.w3.org/2000/svg" xmlns:xlink="http://www.w3.org/1999/xlink" x="0px" y="0px"
	 width="173.571px" height="42.924px" viewBox="0 0 173.571 42.924" enable-background="new 0 0 173.571 42.924"
	 xml:space="preserve">
<g display="none">
	<g display="inline">
		<path fill="#00AECA" d="M58.63,24.535c-1.575,2.081-4.216,3.229-6.805,3.202c-4.59-0.027-8.539-3.843-8.433-8.886
			c0-4.056,3.042-7.766,7.125-8.539c0.4-0.054,0.908-0.08,1.388-0.08c2.322,0,4.803,0.8,6.271,2.508
			c0.8,0.934-0.56,2.215-1.388,1.254c-1.494-1.734-3.976-2.348-5.978-1.841c-2.936,0.694-5.497,3.282-5.497,6.778
			c0.054,3.763,3.096,6.912,6.538,6.992c1.974,0.027,4.029-0.827,5.203-2.402v-3.549h-4.803c-1.254,0-1.121-1.761,0-1.761h5.657
			c0.774,0,1.014,0.4,1.014,0.987v4.456C58.924,23.948,58.87,24.295,58.63,24.535z"/>
		<path fill="#00AECA" d="M65.38,21.547v5.177c0,1.228-1.948,1.228-1.948,0.027V11.433c0-0.56,0.4-0.934,0.987-0.934h6.324
			c4.616,0,6.965,2.615,6.965,5.737c0,2.695-1.467,4.643-4.75,5.204l4.323,4.67c1.014,1.014-0.454,2.188-1.334,1.281l-5.391-5.844
			H65.38z M65.38,19.865h5.39c3.496,0,5.017-1.628,4.964-3.629c-0.027-2.188-1.868-3.949-4.964-3.949h-5.39V19.865z"/>
		<path fill="#00AECA" d="M83.045,23.014l-2.161,4.217c-0.48,0.987-2.242,0.294-1.761-0.774l8.059-15.878
			c0.16-0.347,0.534-0.507,0.88-0.507c0.347,0,0.668,0.16,0.854,0.507l8.033,15.798c0.694,1.148-1.281,1.815-1.788,0.774
			l-2.082-4.136H83.045z M88.062,12.927l-4.216,8.406h8.406L88.062,12.927z"/>
		<path fill="#00AECA" d="M111.865,11.166c0-1.121,2.028-1.175,2.028,0v15.317c0,1.335-1.841,1.468-2.402,0.534l-9.98-13.369
			l0.214,3.682v9.42c0,1.307-2.028,1.334-2.028,0V11.459c0-1.334,1.494-1.547,2.161-0.56l10.274,13.743l-0.267-4.03V11.166z"/>
		<path fill="#00AECA" d="M116.587,11.593c-0.507-1.148,1.334-1.895,1.868-0.748l6.858,13.663l6.698-13.609
			c0.427-1.094,2.242-0.507,1.842,0.694l-7.685,15.557c-0.374,0.694-1.335,0.854-1.788-0.08L116.587,11.593z"/>
		<path fill="#00AECA" d="M150.477,11.219c0-1.307,2.002-1.307,2.002-0.027v8.779c0,5.124-3.976,7.712-7.872,7.712
			c-3.896,0-7.872-2.588-7.872-7.712v-8.779c0-1.174,2.001-1.174,2.001,0.027v8.753c0,7.712,11.742,7.712,11.742,0V11.219z"/>
		<path fill="#00AECA" d="M159.095,25.736h10.541c1.121,0,1.281,1.761,0,1.761h-11.235c-0.747,0-1.227-0.533-1.227-1.174V11.673
			c0-0.614,0.481-1.147,1.227-1.147h11.262c1.148,0,1.094,1.708-0.027,1.708h-10.541v6.004h10.034c1.067,0,1.121,1.708,0,1.708
			h-10.034V25.736z"/>
	</g>
	<path display="inline" fill="none" stroke="#7F3F97" stroke-width="0.2" stroke-miterlimit="10" d="M41.012,16.854"/>
	<g display="inline">
		<polygon fill="#4A4F54" points="3.033,0.75 22.796,35.01 30.248,22.024 24.42,12.149 20.208,12.149 25.77,21.752 22.858,27.018 
			10.132,4.529 19.935,4.529 17.7,0.75 		"/>
		<polygon fill="#00AECA" points="20.21,0.75 22.432,4.506 35.942,4.506 29.224,16.032 31.506,19.942 42.449,0.75 		"/>
		<path fill="none" stroke="#7F3F97" stroke-width="0.2" stroke-miterlimit="10" d="M13.811,18.591"/>
	</g>
	<g display="inline">
		<path fill="#00AECA" d="M81.218,34.482c0-0.249,0.125-0.374,0.372-0.374h0.363c0.249-0.003,0.372,0.122,0.374,0.372l0.009,3.138
			l4.142-0.011l-0.011-3.139c0-0.249,0.136-0.374,0.374-0.377h0.372c0.239,0,0.36,0.124,0.364,0.372l0.019,7.224
			c0,0.25-0.122,0.374-0.36,0.378h-0.372c-0.238,0-0.374-0.125-0.374-0.372l-0.009-3.13l-4.142,0.014l0.009,3.127
			c0,0.249-0.122,0.372-0.372,0.374h-0.363c-0.247,0.003-0.375-0.122-0.375-0.372L81.218,34.482z"/>
		<path fill="#00AECA" d="M96.574,33.932c2.37-0.009,4.092,1.761,4.101,4.053c0.005,2.345-1.705,4.18-4.076,4.189
			c-2.37,0.005-4.103-1.819-4.109-4.167C92.485,35.714,94.206,33.937,96.574,33.932 M96.596,41.145
			c1.694-0.005,2.93-1.375,2.925-3.158c-0.003-1.727-1.248-3.033-2.941-3.027c-1.694,0.003-2.945,1.317-2.939,3.044
			C93.646,39.787,94.902,41.148,96.596,41.145"/>
		<path fill="#00AECA" d="M105.886,34.391c0.022-0.228,0.158-0.352,0.383-0.352l0.507-0.003c0.214,0,0.349,0.092,0.419,0.294
			l1.738,4.012c0.18,0.441,0.396,1.073,0.396,1.073h0.025c0,0,0.2-0.635,0.38-1.073l1.716-4.023
			c0.066-0.205,0.203-0.297,0.416-0.297l0.508-0.003c0.227,0,0.363,0.125,0.385,0.353l0.608,7.233
			c0.011,0.249-0.111,0.385-0.358,0.385l-0.363,0.003c-0.236,0-0.364-0.124-0.385-0.36l-0.374-4.663
			c-0.047-0.482-0.028-1.173-0.028-1.173h-0.022c0,0-0.247,0.735-0.424,1.173l-1.458,3.302c-0.078,0.202-0.214,0.293-0.427,0.293
			l-0.372,0.003c-0.216,0-0.353-0.092-0.43-0.294l-1.477-3.291c-0.172-0.427-0.433-1.194-0.433-1.194h-0.022
			c0,0,0.022,0.712-0.019,1.194l-0.349,4.666c-0.022,0.236-0.144,0.36-0.369,0.36l-0.374,0.003c-0.249,0-0.372-0.136-0.363-0.385
			L105.886,34.391z"/>
		<path fill="#00AECA" d="M118.489,34.377c0-0.249,0.125-0.374,0.372-0.374l3.884-0.011c0.25,0,0.372,0.125,0.372,0.374v0.225
			c0.003,0.235-0.122,0.372-0.369,0.374l-3.149,0.008l0.005,2.495l2.495-0.005c0.235,0,0.372,0.122,0.374,0.371v0.222
			c0,0.249-0.135,0.374-0.372,0.374l-2.495,0.008L119.614,41l3.341-0.008c0.249,0,0.374,0.124,0.374,0.371v0.228
			c0,0.247-0.122,0.372-0.372,0.372l-4.075,0.014c-0.247,0-0.375-0.125-0.375-0.374L118.489,34.377z"/>
		<path fill="#00AECA" d="M127.748,40.741l0.191-0.272c0.135-0.18,0.294-0.203,0.507-0.069c0.283,0.202,0.896,0.64,1.741,0.64
			c0.846-0.003,1.4-0.457,1.398-1.145c-0.006-1.763-3.842-1.356-3.851-3.836c-0.003-1.345,1.123-2.218,2.581-2.221
			c0.946-0.003,1.694,0.366,1.999,0.602c0.191,0.135,0.214,0.305,0.114,0.51l-0.158,0.28c-0.133,0.239-0.313,0.219-0.507,0.105
			c-0.305-0.18-0.791-0.462-1.467-0.46c-0.827,0.003-1.434,0.432-1.431,1.123c0.003,1.716,3.84,1.242,3.845,3.804
			c0.006,1.256-0.929,2.274-2.52,2.279c-1.151,0.003-2.035-0.527-2.395-0.821C127.648,41.126,127.579,40.968,127.748,40.741"/>
	</g>
</g>
<g>
	<path fill="none" stroke="#7F3F97" stroke-width="0.2" stroke-miterlimit="10" d="M42.787-15.25"/>
	<g>
		<path fill="#FFFFFF" d="M60.75,25.084c-1.524,2.015-4.082,3.126-6.588,3.1c-4.444-0.026-8.268-3.72-8.164-8.603
			c0-3.927,2.946-7.518,6.898-8.268c0.388-0.052,0.879-0.078,1.343-0.078c2.248,0,4.65,0.775,6.072,2.428
			c0.775,0.904-0.542,2.145-1.343,1.214c-1.447-1.679-3.85-2.274-5.787-1.783c-2.842,0.671-5.323,3.178-5.323,6.562
			c0.052,3.643,2.997,6.692,6.33,6.769c1.912,0.026,3.901-0.801,5.038-2.326v-3.436h-4.651c-1.214,0-1.085-1.705,0-1.705h5.477
			c0.75,0,0.982,0.387,0.982,0.956v4.314C61.034,24.515,60.982,24.851,60.75,25.084z"/>
		<path fill="#FFFFFF" d="M67.285,22.19v5.012c0,1.189-1.886,1.189-1.886,0.026v-14.83c0-0.542,0.387-0.904,0.956-0.904h6.123
			c4.47,0,6.743,2.532,6.743,5.555c0,2.609-1.421,4.495-4.599,5.038l4.185,4.521c0.982,0.982-0.439,2.118-1.292,1.24l-5.219-5.658
			H67.285z M67.285,20.562h5.219c3.385,0,4.857-1.576,4.806-3.514c-0.026-2.119-1.809-3.824-4.806-3.824h-5.219V20.562z"/>
		<path fill="#FFFFFF" d="M84.388,23.611l-2.093,4.082c-0.465,0.956-2.17,0.284-1.705-0.749l7.802-15.373
			c0.155-0.336,0.517-0.491,0.852-0.491c0.336,0,0.646,0.155,0.827,0.491l7.777,15.295c0.672,1.111-1.24,1.757-1.731,0.749
			l-2.015-4.005H84.388z M89.246,13.845l-4.082,8.139h8.139L89.246,13.845z"/>
		<path fill="#FFFFFF" d="M112.291,12.14c0-1.085,1.964-1.137,1.964,0v14.83c0,1.292-1.783,1.421-2.326,0.517l-9.663-12.944
			l0.207,3.565v9.121c0,1.266-1.964,1.292-1.964,0V12.424c0-1.292,1.447-1.498,2.093-0.542l9.947,13.306l-0.258-3.901V12.14z"/>
		<path fill="#FFFFFF" d="M116.863,12.553c-0.491-1.111,1.292-1.835,1.809-0.724l6.64,13.228l6.485-13.176
			c0.413-1.059,2.171-0.491,1.783,0.672l-7.441,15.062c-0.362,0.672-1.292,0.827-1.731-0.078L116.863,12.553z"/>
		<path fill="#FFFFFF" d="M149.674,12.191c0-1.266,1.938-1.266,1.938-0.026v8.5c0,4.961-3.85,7.467-7.622,7.467
			c-3.772,0-7.621-2.506-7.621-7.467v-8.5c0-1.137,1.937-1.137,1.937,0.026v8.474c0,7.467,11.368,7.467,11.368,0V12.191z"/>
		<path fill="#FFFFFF" d="M158.018,26.246h10.205c1.085,0,1.24,1.705,0,1.705h-10.877c-0.723,0-1.188-0.516-1.188-1.136V12.631
			c0-0.594,0.465-1.111,1.188-1.111h10.903c1.111,0,1.059,1.654-0.026,1.654h-10.205v5.813h9.714c1.033,0,1.085,1.654,0,1.654
			h-9.714V26.246z"/>
	</g>
	<g>
		<polygon fill="#FFFFFF" points="6.513,2.055 25.648,35.225 32.862,22.653 27.22,13.092 23.142,13.092 28.527,22.389 
			25.707,27.487 13.387,5.714 22.878,5.714 20.713,2.055 		"/>
		<polygon fill="#00AECA" points="23.144,2.055 25.295,5.692 38.375,5.692 31.871,16.851 34.08,20.637 44.675,2.055 		"/>
		<path fill="none" stroke="#7F3F97" stroke-width="0.2" stroke-miterlimit="10" d="M16.949,19.329"/>
	</g>
	<g>
		<path fill="#FFFFFF" d="M82.619,34.608c0-0.241,0.121-0.362,0.36-0.362h0.352c0.241-0.003,0.36,0.118,0.362,0.36l0.008,3.038
			l4.01-0.01L87.7,34.594c0-0.241,0.132-0.362,0.362-0.365h0.36c0.231,0,0.349,0.12,0.352,0.36l0.018,6.994
			c0,0.242-0.118,0.362-0.349,0.366h-0.36c-0.231,0-0.362-0.121-0.362-0.36l-0.008-3.03l-4.01,0.013l0.008,3.028
			c0,0.241-0.118,0.36-0.36,0.362H83c-0.239,0.003-0.363-0.118-0.363-0.36L82.619,34.608z"/>
		<path fill="#FFFFFF" d="M97.486,34.075c2.295-0.008,3.962,1.705,3.97,3.924c0.005,2.271-1.651,4.047-3.946,4.056
			c-2.295,0.005-3.972-1.761-3.978-4.035C93.527,35.801,95.194,34.08,97.486,34.075 M97.508,41.059
			c1.64-0.005,2.837-1.331,2.832-3.057c-0.003-1.672-1.208-2.936-2.848-2.931c-1.64,0.003-2.851,1.275-2.845,2.947
			C94.652,39.744,95.867,41.062,97.508,41.059"/>
		<path fill="#FFFFFF" d="M106.502,34.52c0.022-0.22,0.153-0.341,0.371-0.341l0.491-0.003c0.207,0,0.338,0.089,0.406,0.285
			l1.683,3.884c0.174,0.427,0.383,1.039,0.383,1.039h0.024c0,0,0.194-0.614,0.368-1.039l1.661-3.895
			c0.064-0.199,0.196-0.288,0.402-0.288l0.492-0.003c0.22,0,0.352,0.121,0.373,0.341l0.588,7.003
			c0.011,0.241-0.108,0.373-0.346,0.373l-0.352,0.003c-0.229,0-0.352-0.12-0.373-0.349l-0.362-4.515
			c-0.046-0.467-0.027-1.135-0.027-1.135h-0.022c0,0-0.239,0.711-0.411,1.135l-1.412,3.197c-0.075,0.195-0.207,0.284-0.413,0.284
			l-0.36,0.003c-0.209,0-0.341-0.089-0.416-0.285l-1.43-3.186c-0.167-0.413-0.419-1.156-0.419-1.156h-0.022
			c0,0,0.022,0.69-0.018,1.156l-0.338,4.517c-0.022,0.229-0.139,0.349-0.357,0.349l-0.362,0.003c-0.241,0-0.36-0.132-0.352-0.373
			L106.502,34.52z"/>
		<path fill="#FFFFFF" d="M118.704,34.506c0-0.241,0.121-0.362,0.36-0.362l3.76-0.011c0.242,0,0.36,0.121,0.36,0.362v0.218
			c0.003,0.228-0.118,0.36-0.357,0.362l-3.049,0.008l0.005,2.416l2.416-0.005c0.228,0,0.36,0.118,0.362,0.359v0.215
			c0,0.241-0.131,0.362-0.36,0.362l-2.415,0.008l0.008,2.48l3.235-0.008c0.241,0,0.362,0.12,0.362,0.359v0.22
			c0,0.239-0.118,0.36-0.36,0.36l-3.945,0.013c-0.239,0-0.363-0.121-0.363-0.362L118.704,34.506z"/>
		<path fill="#FFFFFF" d="M127.668,40.668l0.185-0.263c0.131-0.174,0.285-0.196,0.491-0.067c0.274,0.195,0.867,0.62,1.686,0.62
			c0.819-0.003,1.356-0.443,1.353-1.109c-0.006-1.707-3.72-1.312-3.728-3.714c-0.003-1.302,1.087-2.148,2.499-2.15
			c0.916-0.003,1.64,0.355,1.935,0.583c0.185,0.131,0.207,0.295,0.11,0.494l-0.153,0.271c-0.129,0.231-0.303,0.212-0.491,0.102
			c-0.295-0.174-0.765-0.448-1.42-0.445c-0.8,0.003-1.388,0.418-1.385,1.087c0.003,1.661,3.718,1.202,3.723,3.683
			c0.006,1.216-0.899,2.201-2.44,2.206c-1.114,0.003-1.97-0.51-2.319-0.795C127.571,41.041,127.504,40.888,127.668,40.668"/>
	</g>
</g>
</svg>
