<?xml version="1.0" encoding="UTF-8" standalone="no"?>
<svg width="28px" height="28px" viewBox="0 0 28 28" version="1.1" xmlns="http://www.w3.org/2000/svg" xmlns:xlink="http://www.w3.org/1999/xlink">
    <!-- Generator: Sketch 46.2 (44496) - http://www.bohemiancoding.com/sketch -->
    <title>Group</title>
    <desc>Created with Sketch.</desc>
    <defs></defs>
    <g id="Symbols" stroke="none" stroke-width="1" fill="none" fill-rule="evenodd">
        <g id="Footer" transform="translate(-1449.000000, -259.000000)">
            <g id="Insta" transform="translate(1410.250000, 259.000000)">
                <g id="Group" transform="translate(39.000000, 0.000000)">
                    <rect id="Rectangle-2" fill="#FFFFFF" x="0" y="0.213867188" width="27" height="27" rx="2"></rect>
                    <path d="M13.5039384,6.71388348 C11.603027,6.71388348 11.365413,6.72219778 10.6184389,6.75501738 C9.87452786,6.78783698 9.36297965,6.90817553 8.92013381,7.08058784 C8.4580338,7.26087686 8.06682413,7.49892838 7.67867763,7.89013805 C7.28746796,8.27872214 7.04941644,8.66949422 6.86912742,9.12896866 C6.69671511,9.57487766 6.57637657,10.0833627 6.54355696,10.8272737 C6.51073736,11.5768734 6.50242306,11.8144874 6.50242306,13.7153988 C6.50242306,15.6163102 6.51073736,15.8539241 6.54355696,16.6008983 C6.57637657,17.3448093 6.69671511,17.8563575 6.86912742,18.2992033 C7.04985404,18.7613033 7.28746796,19.152513 7.67867763,19.5406595 C8.06682413,19.928806 8.4580338,20.1699207 8.91750824,20.3475841 C9.36341725,20.5199964 9.87190229,20.640335 10.6158133,20.6731546 C11.3623499,20.7059742 11.6004014,20.7142885 13.5013128,20.7142885 C15.4022242,20.7142885 15.6402757,20.7059742 16.3868123,20.6731546 C17.1307233,20.640335 17.6422715,20.5199964 18.0851173,20.3475841 C18.5445918,20.1699207 18.9358014,19.9292436 19.3239479,19.5406595 C19.7120944,19.1520754 19.9532091,18.7613033 20.1308726,18.3018289 C20.3032849,17.8559199 20.4236234,17.3474348 20.456443,16.6035238 C20.4892626,15.8569873 20.4975769,15.6189357 20.4975769,13.7180243 C20.4975769,11.8171129 20.4892626,11.579499 20.456443,10.8325248 C20.4236234,10.0886138 20.3032849,9.57706564 20.1308726,9.13421979 C19.9584603,8.66905662 19.7204087,8.27828455 19.3296367,7.88970045 C18.9414902,7.50155395 18.5502805,7.26043926 18.0908061,7.08277581 C17.6448971,6.9103635 17.136412,6.79002496 16.392501,6.75720535 C15.6433389,6.72176018 15.4052873,6.71344588 13.5043759,6.71344588 L13.5039384,6.71388348 Z M13.5039384,7.97459382 C15.3746557,7.97459382 15.5960786,7.98290812 16.3316753,8.01572773 C17.0156359,8.04592176 17.3845282,8.16057157 17.630894,8.25640481 C17.9564645,8.38243209 18.1914528,8.53559024 18.4347555,8.77889289 C18.6811213,9.02525871 18.8312163,9.2576215 18.9598691,9.58319196 C19.0557024,9.82955778 19.1703522,10.2010757 19.2005462,10.8824106 C19.2333658,11.6210705 19.2416801,11.8424934 19.2416801,13.7105852 C19.2416801,15.578677 19.2333658,15.8027255 19.2005462,16.5387598 C19.1703522,17.2227203 19.0557024,17.5916127 18.9598691,17.8379785 C18.8338419,18.163549 18.6811213,18.3985373 18.4373811,18.64184 C18.1910152,18.8882058 17.9586525,19.0383008 17.6335196,19.1669536 C17.3871538,19.2627869 17.0151983,19.3774367 16.3343009,19.4076307 C15.595641,19.4404503 15.3742181,19.4487646 13.5061263,19.4487646 C11.6380345,19.4487646 11.413986,19.4404503 10.6779517,19.4076307 C9.99399122,19.3774367 9.62509888,19.2627869 9.37873306,19.1669536 C9.0531626,19.0409263 8.81817424,18.8882058 8.57443399,18.6444655 C8.32806817,18.3980997 8.17797319,18.1657369 8.04932035,17.8406041 C7.9534871,17.5942382 7.83883729,17.2222827 7.80864326,16.5413854 C7.77582365,15.8027255 7.76750935,15.5813026 7.76750935,13.7132108 C7.76750935,11.845119 7.77582365,11.6210705 7.80864326,10.8850362 C7.83883729,10.2010757 7.9534871,9.83218335 8.04932035,9.58581753 C8.17534762,9.26024707 8.32850577,9.02525871 8.57180842,8.78151846 C8.81817424,8.53515264 9.05053703,8.38505766 9.37610749,8.25640481 C9.62247331,8.16057157 9.99399122,8.04592176 10.6753262,8.01572773 C11.4109229,7.98290812 11.6327834,7.97459382 13.5035008,7.97459382 L13.5039384,7.97459382 Z M13.5039384,16.0482599 C12.2156595,16.0482599 11.171121,15.0037213 11.171121,13.7154425 C11.171121,12.4271637 12.2156595,11.3826252 13.5039384,11.3826252 C14.7922172,11.3826252 15.8367557,12.4271637 15.8367557,13.7154425 C15.8367557,15.0037213 14.7922172,16.0482599 13.5039384,16.0482599 M13.5039384,10.1188516 C15.4897431,10.1188516 17.1005292,11.7300753 17.1005292,13.7154425 C17.1005292,15.7012473 15.4897431,17.3120334 13.5039384,17.3120334 C11.5181336,17.3120334 9.90734747,15.7012473 9.90734747,13.7154425 C9.90734747,11.7296378 11.5185712,10.1188516 13.5039384,10.1188516 Z M18.0820104,9.97663336 C18.0820104,10.4404838 17.7061166,10.8163776 17.2422662,10.8163776 C16.7784158,10.8163776 16.4025219,10.4404838 16.4025219,9.97663336 C16.4025219,9.51278297 16.7784158,9.13688912 17.2422662,9.13688912 C17.7061166,9.13688912 18.0820104,9.51278297 18.0820104,9.97663336 Z" id="Fill-1" fill="#444749"></path>
                </g>
            </g>
        </g>
    </g>
</svg>