<?xml version="1.0" encoding="UTF-8" standalone="no"?>
<svg width="17px" height="16px" viewBox="0 0 17 16" version="1.1" xmlns="http://www.w3.org/2000/svg" xmlns:xlink="http://www.w3.org/1999/xlink">
    <!-- Generator: Sketch 46.2 (44496) - http://www.bohemiancoding.com/sketch -->
    <title>Fill 1</title>
    <desc>Created with Sketch.</desc>
    <defs></defs>
    <g id="Symbols" stroke="none" stroke-width="1" fill="none" fill-rule="evenodd">
        <g id="Menu-Dark" transform="translate(-1441.000000, -8.000000)" fill="#00AECA">
            <path d="M1447.16647,16.6224123 C1446.62377,16.0951298 1446.1957,15.4189341 1446.12205,14.6453564 C1446.0478,13.86975 1446.37078,13.0298309 1447.18433,12.3008866 C1447.38254,12.1231646 1447.49067,12.0006257 1447.5207,11.9107503 C1447.55012,11.8224979 1447.55843,11.6942784 1447.39065,11.3771785 L1445.58848,9.01911579 C1445.35618,8.78681933 1445.26286,8.79371722 1445.08635,8.84890031 C1444.90965,8.90388052 1444.667,9.08586299 1444.44079,9.30598671 C1442.98838,10.7586004 1442.5319,11.9888587 1442.75507,13.2781548 C1442.97824,14.5674509 1443.95023,15.9884154 1445.58848,17.6266634 L1447.59678,19.6349627 C1449.23482,21.2730078 1450.65619,22.2450011 1451.94549,22.4683709 C1453.23458,22.6915378 1454.46484,22.2352629 1455.91745,20.7826492 C1456.13758,20.556642 1456.31956,20.3137958 1456.37474,20.1370882 C1456.42972,19.9605835 1456.43642,19.867462 1456.20433,19.6349627 L1453.84626,17.8327885 C1453.52916,17.6650075 1453.40094,17.6733256 1453.31269,17.7029459 C1453.22302,17.732972 1453.10028,17.8407008 1452.92256,18.0391164 C1452.19361,18.8528641 1451.35369,19.1754417 1450.57809,19.1015938 C1449.80451,19.0277458 1449.12831,18.599874 1448.60103,18.0569698 M1449.17477,17.4832279 C1449.61705,17.9466036 1450.15062,18.232663 1450.65416,18.2900778 C1451.17009,18.3393774 1451.71502,18.1691619 1452.31757,17.496618 C1452.50422,17.2882612 1452.70852,17.0470381 1453.0528,16.9318028 C1453.39668,16.8165675 1453.81015,16.8879809 1454.24959,17.1245379 C1455.08829,17.7613751 1455.95316,18.4061245 1456.77807,19.0612209 C1457.17125,19.4544004 1457.27248,19.9723505 1457.14568,20.3791229 C1457.01889,20.7858953 1456.74703,21.0942714 1456.49566,21.3521306 C1455.09458,22.8118451 1453.43503,23.5174582 1451.80652,23.2707574 C1450.23319,22.9982909 1448.71058,21.896455 1447.02304,20.2087045 C1446.29774,19.4834121 1445.73252,18.918394 1445.01474,18.2004052 C1443.32699,16.5128577 1442.22515,14.9904536 1441.95268,13.4171269 C1441.62889,11.4713143 1442.66256,9.88743794 1443.87151,8.72778154 C1444.12937,8.47661733 1444.43755,8.20455658 1444.84432,8.0777572 C1445.25109,7.95095782 1445.76904,8.05199157 1446.16222,8.44537396 C1446.81711,9.27028 1447.46207,10.1351532 1448.0989,10.973855 C1448.33546,11.4132909 1448.40687,11.8267584 1448.29164,12.1708412 C1448.17661,12.5147211 1447.93518,12.719426 1447.72682,12.9060747 C1447.05448,13.5084224 1446.88406,14.0531526 1446.93336,14.5690739 C1446.99078,15.0728225 1447.27684,15.6065971 1447.74042,16.0486705" id="Fill-1"></path>
        </g>
    </g>
</svg>