<?xml version="1.0" encoding="UTF-8" standalone="no"?>
<svg width="15px" height="16px" viewBox="0 0 15 16" version="1.1" xmlns="http://www.w3.org/2000/svg" xmlns:xlink="http://www.w3.org/1999/xlink">
    <!-- Generator: Sketch 49.1 (51147) - http://www.bohemiancoding.com/sketch -->
    <title>Group 5</title>
    <desc>Created with Sketch.</desc>
    <defs></defs>
    <g id="Page-1" stroke="none" stroke-width="1" fill="none" fill-rule="evenodd">
        <g id="1.0---GRA001---Home-Page-new-layout-Copy" transform="translate(-1187.000000, -862.000000)" fill="#FFFFFF">
            <g id="Hero-Image-&amp;-msg" transform="translate(-17.000000, 100.000000)">
                <g id="Scroll-Down" transform="translate(17.000000, 762.000000)">
                    <g id="Group-5" transform="translate(1186.898148, 0.500000)">
                        <path d="M7.61989001,5.70200175 L12.6697647,0.652127033 C13.0287649,0.293126849 13.6090414,0.293126849 13.9680416,0.652127033 C14.3270418,1.01112722 14.3270418,1.59140373 13.9680416,1.95040391 L8.26902845,7.64941707 C8.08998744,7.82845808 7.85493873,7.91843767 7.61989001,7.91843767 C7.3848413,7.91843767 7.14979259,7.82845808 6.97075157,7.64941707 L1.22858494,1.90633228 C0.869584758,1.54916841 0.869584758,0.967055583 1.22858494,0.608055399 C1.58666697,0.249973374 2.16786164,0.249973374 2.52686182,0.608055399 L7.61989001,5.70200175 Z" id="Fill-5"></path>
                        <path d="M6.92677176,14.4809794 L1.2277586,8.78196625 C0.869676574,8.42296606 0.869676574,7.84268955 1.2277586,7.48368936 C1.58675878,7.12468918 2.16795346,7.12468918 2.52695364,7.48368936 L7.57682836,12.5326459 L12.6698565,7.43961773 C13.0288567,7.08061755 13.6091332,7.08061755 13.9681334,7.43961773 C14.3271336,7.79861791 14.3271336,8.37889443 13.9681334,8.73789461 L8.2259668,14.4809794 C8.04600762,14.6600204 7.81095891,14.75 7.57682836,14.75 C7.34086148,14.75 7.10581277,14.6600204 6.92677176,14.4809794" id="Fill-7"></path>
                    </g>
                </g>
            </g>
        </g>
    </g>
</svg>