<?xml version="1.0" encoding="UTF-8" standalone="no"?>
<svg width="23px" height="29px" viewBox="0 0 23 29" version="1.1" xmlns="http://www.w3.org/2000/svg" xmlns:xlink="http://www.w3.org/1999/xlink">
    <!-- Generator: Sketch 46.2 (44496) - http://www.bohemiancoding.com/sketch -->
    <title>Fill 3</title>
    <desc>Created with Sketch.</desc>
    <defs></defs>
    <g id="Symbols" stroke="none" stroke-width="1" fill="none" fill-rule="evenodd">
        <g id="Footer" transform="translate(-150.000000, -457.000000)" fill="#00AECA">
            <path d="M170.611849,471.943041 C170.135697,473.261618 169.366893,474.470314 168.268079,475.605755 L161.162047,483.920116 L154.019755,475.605755 C152.957568,474.470314 152.188398,473.261618 151.712246,471.943041 C151.236093,470.587837 151.01633,469.232633 151.126211,467.877428 C151.455856,463.1159 155.301705,458.207864 161.162047,458.207864 C167.02239,458.207864 170.904867,463.1159 171.19825,467.877428 C171.307765,469.232633 171.088002,470.624464 170.611849,471.943041 M161.162047,457.109049 C155.301705,457.109049 150.430296,461.797323 150.027397,467.804174 C149.917516,469.342514 150.137279,470.844227 150.686686,472.345939 C151.199466,473.774398 152.078517,475.129602 153.213958,476.374925 L160.759149,485.128811 C160.86903,485.238693 161.015539,485.311947 161.162047,485.311947 C161.308556,485.311947 161.491692,485.238693 161.564946,485.128811 L169.07351,476.374925 C170.245578,475.129602 171.088002,473.774398 171.600782,472.345939 C172.150189,470.844227 172.369952,469.342514 172.260071,467.804174 C171.893799,461.797323 167.02239,457.109049 161.162047,457.109049 M161.162121,471.759905 C159.00112,471.759905 157.243017,469.965175 157.243017,467.73092 C157.243017,465.496664 159.00112,463.701935 161.162121,463.701935 C163.323122,463.701935 165.081225,465.496664 165.081225,467.73092 C165.081225,469.965175 163.323122,471.759905 161.162121,471.759905 M161.162121,462.60312 C158.415085,462.60312 156.144203,464.91063 156.144203,467.73092 C156.144203,470.55121 158.378458,472.858719 161.162121,472.858719 C163.945783,472.858719 166.180039,470.55121 166.180039,467.73092 C166.180039,464.91063 163.909156,462.60312 161.162121,462.60312" id="Fill-3"></path>
        </g>
    </g>
</svg>