<?xml version="1.0" encoding="UTF-8" standalone="no"?>
<svg width="17px" height="14px" viewBox="0 0 17 14" version="1.1" xmlns="http://www.w3.org/2000/svg" xmlns:xlink="http://www.w3.org/1999/xlink">
    <!-- Generator: Sketch 46.2 (44496) - http://www.bohemiancoding.com/sketch -->
    <title>Page 1</title>
    <desc>Created with Sketch.</desc>
    <defs></defs>
    <g id="Symbols" stroke="none" stroke-width="1" fill="none" fill-rule="evenodd">
        <g id="Menu-Dark" transform="translate(-1292.000000, -10.000000)" stroke="#00AECA">
            <g id="Top-Bar" transform="translate(0.000000, 9.000000)">
                <path d="M1300.83839,14.2022713 C1300.67839,14.2022713 1300.51089,14.1404899 1300.35422,14.0231638 L1294.71656,9.06252858 C1293.87657,8.27691115 1293.41657,7.2348133 1293.41657,6.123723 C1293.41657,5.01302249 1293.87657,3.97072975 1294.71198,3.18939999 C1295.54385,2.41099363 1296.65425,1.98242188 1297.83841,1.98242188 C1298.98861,1.98242188 1300.0911,2.75829461 1300.85589,3.39208967 C1301.77609,2.60530288 1302.97441,2.15782641 1304.17169,2.15782641 C1305.26397,2.15782641 1306.22959,2.5211087 1306.96479,3.20888938 C1307.79687,3.98710084 1308.25499,5.02588549 1308.25499,6.13366259 C1308.25499,7.2414397 1307.79687,8.28002945 1306.96479,9.05824092 L1301.33526,14.0128344 C1301.20442,14.1352278 1301.03109,14.2022713 1300.83839,14.2022713" id="Page-1"></path>
            </g>
        </g>
    </g>
</svg>