<?xml version="1.0" encoding="UTF-8" standalone="no"?>
<svg width="27px" height="28px" viewBox="0 0 27 28" version="1.1" xmlns="http://www.w3.org/2000/svg" xmlns:xlink="http://www.w3.org/1999/xlink">
    <!-- Generator: Sketch 46.2 (44496) - http://www.bohemiancoding.com/sketch -->
    <title>Google+</title>
    <desc>Created with Sketch.</desc>
    <defs></defs>
    <g id="Symbols" stroke="none" stroke-width="1" fill="none" fill-rule="evenodd">
        <g id="Footer" transform="translate(-1562.000000, -259.000000)">
            <g id="Google+" transform="translate(1562.000000, 259.000000)">
                <circle id="Oval" fill="#00AECA" cx="13.5" cy="13.7138672" r="13.5"></circle>
                <rect id="Rectangle-2" fill="#FFFFFF" x="0" y="0.192422091" width="27" height="27" rx="2"></rect>
                <path d="M10.2272318,12.8737238 L10.2261068,12.8748488 L15.6332842,12.8748488 C15.6827829,13.1600292 15.7249694,13.448022 15.7249694,13.824325 C15.7249694,17.0974307 13.5312742,19.4210601 10.2266693,19.4210601 C7.05931102,19.4210601 4.5,16.8623116 4.5,13.6943908 C4.5,10.52647 7.05931102,7.96715897 10.2266693,7.96378406 C11.7701307,7.96378406 13.0638484,8.52964491 14.0622609,9.46112162 L12.5086748,10.9584592 C12.0834354,10.5506569 11.3415165,10.0759188 10.2272318,10.0759188 C8.27259319,10.0759188 6.67625809,11.6964407 6.67625809,13.6932658 C6.67625809,15.6900909 8.27259319,17.3106129 10.2272318,17.3106129 C12.4946126,17.3106129 13.3456539,15.6827786 13.4755881,14.8390497 L10.2272318,14.8390497 L10.2272318,12.8737238 Z M22.5,12.7084092 L22.5,14.395867 L20.8125422,14.395867 L20.8125422,16.0833248 L19.1250844,16.0833248 L19.1250844,14.395867 L17.4376266,14.395867 L17.4376266,12.7084092 L19.1250844,12.7084092 L19.1250844,11.0209514 L20.8125422,11.0209514 L20.8125422,12.7084092 L22.5,12.7084092 Z" id="Fill-1" fill="#444749"></path>
            </g>
        </g>
    </g>
</svg>