<?xml version="1.0" encoding="UTF-8" standalone="no"?>
<svg width="28px" height="28px" viewBox="0 0 28 28" version="1.1" xmlns="http://www.w3.org/2000/svg" xmlns:xlink="http://www.w3.org/1999/xlink">
    <!-- Generator: Sketch 46.2 (44496) - http://www.bohemiancoding.com/sketch -->
    <title>Pinterest</title>
    <desc>Created with Sketch.</desc>
    <defs></defs>
    <g id="Symbols" stroke="none" stroke-width="1" fill="none" fill-rule="evenodd">
        <g id="Footer" transform="translate(-1487.000000, -259.000000)">
            <g id="Pinterest" transform="translate(1486.500000, 259.000000)">
                <circle id="Oval-Copy-2" fill="#00AECA" cx="14.3267582" cy="13.7138672" r="13.5"></circle>
                <rect id="Rectangle-2" fill="#FFFFFF" x="0.826758235" y="0.213867187" width="27" height="27" rx="2"></rect>
                <path d="M14.3267582,20.584618 C13.617529,20.584618 12.9360544,20.4755821 12.2917512,20.2778305 C12.570784,19.8223577 12.9915636,19.0729834 13.146692,18.478242 C13.2304515,18.1560903 13.5744103,16.8456766 13.5744103,16.8456766 C13.7974383,17.2728993 14.454132,17.6356916 15.1479971,17.6356916 C17.2201755,17.6356916 18.7134722,15.7305364 18.7134722,13.3609872 C18.7134722,11.0905617 16.8608525,9.39307041 14.4789129,9.39307041 C11.5146223,9.39307041 9.94103551,11.3849587 9.94103551,13.5498177 C9.94103551,14.5564176 10.4767985,15.8113221 11.3352086,16.2107901 C11.4650605,16.2727424 11.5334558,16.2449878 11.5646797,16.1171183 C11.5864869,16.0214641 11.7039484,15.5565745 11.7564838,15.3370158 C11.771848,15.2686205 11.7659006,15.2066683 11.7098958,15.1387686 C11.4249155,14.7943142 11.1989137,14.1599233 11.1989137,13.5716249 C11.1989137,12.0570166 12.3452779,10.5885008 14.2994993,10.5885008 C15.9875738,10.5885008 17.1681356,11.7378387 17.1681356,13.3822988 C17.1681356,15.2408659 16.2294353,16.5289768 15.0092241,16.5289768 C14.3336969,16.5289768 13.8291579,15.9714067 13.9932074,15.287454 C14.1884808,14.4696845 14.563168,13.5899627 14.563168,13.0011687 C14.563168,12.4743268 14.2811614,12.0347138 13.692863,12.0347138 C13.0019716,12.0347138 12.4508445,12.7474123 12.4508445,13.7044504 C12.4508445,14.3115824 12.6550391,14.7234408 12.6550391,14.7234408 C12.6550391,14.7234408 11.9735645,17.6005027 11.84966,18.1367613 C11.7103914,18.7315027 11.7659006,19.5641408 11.8248791,20.1068424 C9.26947327,19.1091636 7.45699864,16.6251267 7.45699864,13.7133716 C7.45699864,9.91842537 10.5328033,6.84262074 14.3272539,6.84262074 C18.1217044,6.84262074 21.1980047,9.91842537 21.1980047,13.7133716 C21.1980047,17.5078221 18.1222,20.5841224 14.3272539,20.5841224 L14.3267582,20.584618 Z M14.3267582,5.78398092 C9.95293034,5.78398092 6.39687197,9.34003929 6.39687197,13.7138672 C6.39687197,18.0876951 9.95293034,21.6437535 14.3267582,21.6437535 C18.7005861,21.6437535 22.2566445,18.0876951 22.2566445,13.7138672 C22.2566445,9.34003929 18.7005861,5.78398092 14.3267582,5.78398092 L14.3267582,5.78398092 Z" id="Fill-1" fill="#444749"></path>
            </g>
        </g>
    </g>
</svg>